<svg width="29" height="29" viewBox="0 0 29 29" fill="none" xmlns="http://www.w3.org/2000/svg">
<path fill-rule="evenodd" clip-rule="evenodd" d="M14.3911 28.5525H14.3852C11.9967 28.5517 9.6498 27.9524 7.56535 26.8155L0 28.8L2.02461 21.4048C0.775733 19.2405 0.118579 16.7855 0.11965 14.2702C0.12278 6.40169 6.52482 0 14.3909 0C18.2086 0.00164768 21.7918 1.48787 24.4862 4.18541C27.1806 6.88282 28.6637 10.4683 28.6621 14.2815C28.659 22.1483 22.2595 28.5493 14.3911 28.5525ZM7.91587 24.2319L8.349 24.489C10.1702 25.5697 12.2578 26.1415 14.3863 26.1423H14.3911C20.9288 26.1423 26.2499 20.8211 26.2525 14.2807C26.2538 11.1112 25.0212 8.13108 22.7817 5.88899C20.5422 3.64689 17.564 2.41153 14.3957 2.41044C7.85293 2.41044 2.53177 7.73111 2.52918 14.2711C2.52826 16.5124 3.15537 18.6951 4.34274 20.5836L4.62477 21.0324L3.42648 25.4095L7.91587 24.2319ZM21.0924 17.3541C21.3411 17.4743 21.5091 17.5554 21.5808 17.6751C21.6699 17.8238 21.6699 18.5378 21.3729 19.3709C21.0756 20.2038 19.6511 20.964 18.9659 21.0663C18.3516 21.1582 17.5741 21.1965 16.7199 20.925C16.202 20.7607 15.5379 20.5413 14.6871 20.1739C11.3442 18.7304 9.08502 15.4904 8.65805 14.878C8.62814 14.8351 8.60722 14.8051 8.59555 14.7895L8.59268 14.7857C8.40396 14.5339 7.13952 12.8468 7.13952 11.1008C7.13952 9.45824 7.94635 8.59731 8.31774 8.20101C8.34319 8.17386 8.36659 8.14889 8.38755 8.126C8.71439 7.769 9.10074 7.67975 9.33844 7.67975C9.57614 7.67975 9.81412 7.68195 10.0219 7.69239C10.0475 7.69367 10.0742 7.69352 10.1017 7.69335C10.3095 7.69214 10.5686 7.69062 10.8242 8.3045C10.9225 8.54076 11.0664 8.89102 11.2181 9.26043C11.5249 10.0074 11.864 10.8328 11.9236 10.9522C12.0128 11.1307 12.0722 11.3389 11.9533 11.577C11.9355 11.6126 11.919 11.6463 11.9032 11.6785C11.8139 11.8608 11.7483 11.9949 11.5968 12.1718C11.5372 12.2413 11.4756 12.3163 11.414 12.3913C11.2913 12.5407 11.1687 12.6901 11.0619 12.7965C10.8833 12.9743 10.6975 13.1673 10.9055 13.5243C11.1135 13.8813 11.8292 15.0489 12.8892 15.9945C14.0288 17.0109 15.0192 17.4405 15.5212 17.6582C15.6192 17.7008 15.6986 17.7352 15.7569 17.7644C16.1133 17.9429 16.3213 17.913 16.5294 17.6751C16.7374 17.4371 17.4208 16.6339 17.6584 16.2769C17.8961 15.9201 18.1339 15.9795 18.4607 16.0985C18.7877 16.2176 20.5408 17.0801 20.8974 17.2586C20.967 17.2935 21.0321 17.3249 21.0924 17.3541Z" fill="#00FF37"/>
</svg>
